<?xml version="1.0" encoding="utf-8"?>
<!-- Generator: Adobe Illustrator 19.1.0, SVG Export Plug-In . SVG Version: 6.00 Build 0)  -->
<svg version="1.1" id="Layer_1" xmlns="http://www.w3.org/2000/svg" xmlns:xlink="http://www.w3.org/1999/xlink" x="0px" y="0px"
	 viewBox="0 0 64 64" enable-background="new 0 0 64 64" xml:space="preserve">
<g id="Percent_1_">
	<path d="M40.5878983,20.1914005c-0.4482803-0.325201-1.0722771-0.2266006-1.3964996,0.2206993L23.1914005,42.4121017
		c-0.325201,0.4462967-0.2266006,1.0723,0.2206993,1.3964996C23.5897999,43.9375,23.7949009,44,23.9990005,44
		c0.3096199,0,0.6141987-0.142601,0.8096199-0.4121017l16-21.9999981
		C41.1338005,21.1415997,41.035099,20.5156002,40.5878983,20.1914005z"/>
	<path d="M32,0c-17.6730995,0-32,14.3268003-32,32c0,17.6730995,14.3268995,32,32,32s32-14.3269005,32-32
		C64,14.3268003,49.6730995,0,32,0z M32,62c-16.542099,0-30-13.457901-30-30S15.4579,2,32,2c16.5419998,0,30,13.4579,30,30
		S48.5419998,62,32,62z"/>
	<path d="M27,29c2.7614002,0,5-2.2385998,5-5s-2.2385998-5-5-5c-2.7613811,0-5,2.2385998-5,5S24.2386189,29,27,29z M27,21
		c1.6541996,0,3,1.3458004,3,3s-1.3458004,3-3,3s-3-1.3458004-3-3S25.3458004,21,27,21z"/>
	<path d="M38,35c-2.7613792,0-5,2.2386017-5,5s2.2386208,5,5,5c2.7613983,0,5-2.2386017,5-5S40.7613983,35,38,35z M38,43
		c-1.6542015,0-3-1.3457985-3-3s1.3457985-3,3-3s3,1.3457985,3,3S39.6542015,43,38,43z"/>
</g>
<g>
</g>
<g>
</g>
<g>
</g>
<g>
</g>
<g>
</g>
<g>
</g>
<g>
</g>
<g>
</g>
<g>
</g>
<g>
</g>
<g>
</g>
<g>
</g>
<g>
</g>
<g>
</g>
<g>
</g>
</svg>
